<?xml version="1.0" standalone="no"?>
<!DOCTYPE svg PUBLIC "-//W3C//DTD SVG 20010904//EN"
 "http://www.w3.org/TR/2001/REC-SVG-20010904/DTD/svg10.dtd">
<svg version="1.0" xmlns="http://www.w3.org/2000/svg"
 width="2734.000000pt" height="1667.000000pt" viewBox="0 0 2734.000000 1667.000000"
 preserveAspectRatio="xMidYMid meet">
<metadata>
Created by potrace 1.15, written by Peter Selinger 2001-2017
</metadata>
<g transform="translate(0.000000,1667.000000) scale(0.100000,-0.100000)"
fill="#000000" stroke="none">
<path d="M16320 11645 c-154 -43 -274 -138 -335 -266 -65 -139 -79 -210 -79
-424 0 -212 14 -313 78 -545 39 -143 125 -382 135 -378 4 2 44 44 90 95 l82
92 -65 193 c-77 225 -112 375 -124 519 -32 380 108 580 408 582 52 1 112 -2
133 -6 30 -7 37 -5 37 8 0 9 9 34 21 56 11 23 18 43 15 46 -14 15 -133 34
-231 38 -80 4 -125 1 -165 -10z"/>
<path d="M16835 11627 c-60 -34 -87 -87 -82 -164 3 -70 22 -103 77 -140 89
-61 208 -31 258 67 47 93 13 197 -80 246 -42 22 -126 18 -173 -9z"/>
<path d="M17158 11380 l-17 -40 97 -49 c54 -27 138 -72 187 -100 82 -47 115
-57 115 -32 0 15 -342 262 -362 261 -2 0 -11 -18 -20 -40z"/>
<path d="M18745 9688 c-3 -8 24 -90 60 -182 171 -437 242 -715 276 -1084 27
-306 -51 -554 -202 -637 -47 -25 -67 -30 -150 -33 -250 -11 -569 138 -947 441
-328 263 -751 746 -1032 1179 -52 81 -99 147 -104 147 -5 1 -48 -37 -95 -84
l-86 -84 19 -33 c52 -90 240 -368 326 -483 437 -581 1054 -1083 1522 -1240
478 -160 801 -16 896 400 23 100 22 377 -2 510 -58 328 -175 653 -364 1019
-84 163 -106 194 -117 164z"/>
<path d="M13620 7293 l-1 -428 -31 38 c-50 61 -162 134 -252 164 -72 24 -97
27 -216 27 -157 0 -224 -14 -345 -73 -189 -93 -315 -274 -376 -540 -26 -115
-36 -360 -19 -483 52 -389 264 -673 561 -754 46 -13 101 -18 194 -18 210 1
322 40 438 155 l67 67 0 -89 0 -89 335 0 335 0 0 1225 0 1225 -345 0 -345 0 0
-427z m-160 -720 c124 -51 189 -217 177 -458 -9 -193 -61 -304 -166 -357 -60
-31 -142 -37 -216 -17 -63 17 -137 99 -166 185 -22 62 -24 86 -24 239 0 186
12 242 71 327 65 94 207 129 324 81z"/>
<path d="M6875 7094 c-315 -36 -459 -88 -581 -209 -85 -85 -128 -179 -148
-333 l-6 -42 322 2 322 3 7 31 c9 48 44 90 97 116 39 19 63 23 137 23 77 0 96
-4 135 -25 80 -45 110 -122 75 -190 -33 -64 -95 -86 -350 -120 -392 -53 -552
-105 -680 -222 -120 -110 -171 -300 -130 -493 42 -196 176 -328 394 -387 104
-28 340 -30 456 -4 104 23 229 83 293 141 l52 47 0 -44 c0 -23 5 -60 11 -80
l10 -38 349 0 c193 0 350 2 350 5 0 3 -9 23 -20 45 -52 102 -53 114 -60 750
-7 643 -7 636 -64 749 -97 190 -367 284 -806 279 -74 0 -148 -3 -165 -4z m373
-1146 c-5 -127 -18 -165 -72 -226 -63 -69 -163 -102 -253 -82 -139 31 -203
159 -126 251 36 42 67 56 216 94 73 18 155 42 182 53 28 11 52 20 54 21 2 1 1
-50 -1 -111z"/>
<path d="M9030 7094 c-14 -2 -52 -9 -85 -15 -316 -54 -582 -269 -695 -561 -49
-127 -63 -221 -57 -397 5 -173 27 -272 88 -394 175 -349 569 -545 997 -497
335 37 588 201 718 465 42 86 84 221 84 272 l0 23 -330 0 -330 0 0 -27 c0 -72
-85 -186 -162 -218 -42 -17 -136 -20 -187 -5 -85 24 -148 99 -177 210 -25 93
-25 320 0 418 38 150 127 225 269 225 62 0 82 -4 126 -28 70 -39 95 -75 115
-167 l6 -28 325 0 325 0 0 28 c0 15 -9 65 -20 112 -72 298 -289 492 -635 565
-76 16 -321 29 -375 19z"/>
<path d="M11012 7090 c-234 -25 -404 -87 -513 -188 -97 -89 -149 -194 -165
-329 l-7 -63 321 0 320 0 6 35 c9 49 58 100 114 122 74 28 194 25 257 -7 81
-42 110 -123 71 -198 -31 -61 -76 -74 -411 -122 -362 -51 -518 -109 -637 -237
-83 -90 -118 -189 -118 -335 0 -108 14 -175 52 -257 98 -207 372 -317 701
-282 175 19 292 64 398 152 l46 39 12 -75 12 -75 355 0 354 0 -19 38 c-54 107
-54 103 -61 737 -7 558 -8 594 -28 668 -27 98 -60 154 -125 213 -84 75 -189
119 -362 150 -106 18 -449 27 -573 14z m425 -1132 c-6 -120 -25 -180 -72 -235
-88 -103 -267 -117 -363 -29 -77 69 -66 179 22 231 23 14 110 43 194 64 84 22
164 47 180 55 15 8 31 15 36 16 5 0 6 -45 3 -102z"/>
<path d="M15375 7090 c-326 -51 -601 -266 -715 -561 -55 -142 -64 -198 -64
-379 1 -145 4 -177 27 -262 57 -215 175 -382 352 -497 370 -242 974 -219 1291
47 106 89 209 231 239 330 l6 22 -323 0 -323 0 -30 -32 c-76 -80 -251 -112
-370 -68 -107 40 -186 143 -210 273 l-7 37 652 0 653 0 -7 118 c-31 551 -260
858 -711 953 -105 23 -368 33 -460 19z m353 -471 c87 -43 139 -113 156 -211
l7 -38 -320 0 -319 0 10 38 c43 157 156 241 324 242 70 0 89 -4 142 -31z"/>
<path d="M17915 7089 c-83 -12 -172 -44 -241 -85 -69 -41 -102 -70 -155 -137
l-39 -49 0 116 0 116 -330 0 -330 0 0 -890 0 -890 345 0 344 0 3 548 3 547 24
53 c43 94 123 140 224 129 76 -9 123 -42 155 -106 l27 -56 3 -557 3 -558 344
0 344 0 3 548 3 547 24 53 c43 94 123 140 224 129 76 -9 123 -42 155 -106 l27
-56 3 -557 3 -558 345 0 345 0 -3 678 c-3 612 -5 683 -21 737 -62 209 -203
346 -407 396 -83 21 -307 18 -403 -4 -116 -28 -226 -87 -314 -170 -40 -38 -75
-68 -76 -66 -75 107 -136 161 -229 204 -109 50 -253 66 -403 44z"/>
<path d="M19890 7042 c0 -11 299 -820 404 -1094 179 -467 210 -585 171 -644
-34 -53 -57 -59 -237 -63 l-168 -3 0 -274 0 -274 243 0 c458 1 603 35 746 179
73 73 142 195 199 351 73 199 645 1797 650 1813 4 16 -17 17 -351 17 l-356 0
-19 -62 c-10 -35 -74 -262 -143 -506 -68 -244 -125 -437 -127 -430 -2 7 -65
234 -140 503 l-137 490 -368 3 c-202 1 -367 -2 -367 -6z"/>
</g>
</svg>
